#!OML:ASF H:\ManfredETheater\Project 1\Capture day 1\Session 1\subject.ASF
:FULLY-SPECIFIED
:DEGREES
441
root 3.80079 17.4413 -4.73297 3.39462 -10.2432 15.4975
lowerback 2.98687 -3.31407 -0.185791
upperback -0.303901 -4.31635 6.89155
thorax -1.4381 -2.14554 7.45632
lowerneck -13.2214 0.0432628 0.470833
upperneck 17.8254 2.47835 -13.1087
head 7.89438 -0.0675596 -4.18693
rclavicle 3.18055e-015 -5.725e-014
rhumerus -21.8316 -14.0851 -23.0746
rradius 66.1573
rwrist -15.0622
rhand -22.6686 -11.913
rfingers 7.12502
rthumb 3.76318 -41.8595
lclavicle 3.18055e-015 -5.725e-014
lhumerus -36.9208 -26.8824 65.5488
lradius 77.7015
lwrist 0.0168778
lhand -13.3692 3.39632
lfingers 7.12502
lthumb 12.7373 32.9878
rfemur -18.9405 2.35469 -15.1778
rtibia 34.3755
rfoot -15.1306 -11.0523
rtoes -3.67671
lfemur -15.5231 10.5517 -36.5644
ltibia 36.1704
lfoot -20.3898 8.32763
ltoes -3.21745
442
root 3.78435 17.4588 -4.78951 3.82968 -10.4743 15.566
lowerback 3.50937 -3.31807 -0.184677
upperback -0.119523 -4.31121 6.96682
thorax -1.53512 -2.14413 7.56645
lowerneck -13.3169 0.143822 0.560505
upperneck 17.0418 2.53959 -13.2324
head 7.66154 -0.0128132 -4.21528
rclavicle -2.14687e-014 -3.18055e-015
rhumerus -21.9466 -13.7379 -23.7002
rradius 66.1565
rwrist -14.9232
rhand -22.6665 -11.9146
rfingers 7.12502
rthumb 3.76516 -41.8611
lclavicle -2.14687e-014 -3.18055e-015
lhumerus -36.8458 -27.5057 65.5638
lradius 77.381
lwrist 0.0742851
lhand -13.297 3.46765
lfingers 7.12502
lthumb 12.8069 33.0548
rfemur -19.6238 2.43584 -15.2301
rtibia 34.2296
rfoot -14.9222 -11.1626
rtoes -3.61412
lfemur -16.1835 10.6787 -36.6823
ltibia 36.0031
lfoot -20.1298 8.24005
ltoes -3.15736
443
root 3.76364 17.4763 -4.84572 4.26447 -10.7117 15.6136
lowerback 4.02348 -3.31349 -0.20951
upperback 0.0681493 -4.29628 7.02898
thorax -1.62413 -2.13787 7.67672
lowerneck -13.3973 0.240563 0.646698
upperneck 16.268 2.58895 -13.3247
head 7.42948 0.0393951 -4.23465
rclavicle -1.11319e-014 2.22639e-014
rhumerus -22.0771 -13.359 -24.366
rradius 66.1426
rwrist -14.7703
rhand -22.6562 -11.9108
rfingers 7.12502
rthumb 3.77515 -41.8571
lclavicle -1.11319e-014 2.22639e-014
lhumerus -36.7733 -28.0811 65.5544
lradius 77.1095
lwrist 0.194247
lhand -13.2794 3.56492
lfingers 7.12502
lthumb 12.8239 33.151
rfemur -20.3113 2.51205 -15.2502
rtibia 34.094
rfoot -14.7161 -11.2621
rtoes -3.5687
lfemur -16.8396 10.7888 -36.7647
ltibia 35.8435
lfoot -19.8707 8.17055
ltoes -3.1114
444
root 3.73869 17.4937 -4.9015 4.69842 -10.9542 15.6369
lowerback 4.52922 -3.30036 -0.257108
upperback 0.257524 -4.27178 7.0784
thorax -1.70699 -2.12687 7.78554
lowerneck -13.4629 0.334095 0.73043
upperneck 15.5091 2.62874 -13.3876
head 7.2 0.0895951 -4.24584
rclavicle -5.32743e-014 2.54444e-014
rhumerus -22.2249 -12.9469 -25.0723
rradius 66.1178
rwrist -14.602
rhand -22.6225 -11.8909
rfingers 7.12502
rthumb 3.80763 -41.8366
lclavicle -5.32743e-014 2.54444e-014
lhumerus -36.6996 -28.6007 65.5207
lradius 76.8816
lwrist 0.350818
lhand -13.2909 3.68116
lfingers 7.12502
lthumb 12.8127 33.268
rfemur -21.0033 2.57761 -15.2325
rtibia 33.9719
rfoot -14.5092 -11.3482
rtoes -3.5454
lfemur -17.4907 10.8791 -36.8076
ltibia 35.694
lfoot -19.613 8.12362
ltoes -3.07933
445
root 3.70958 17.5112 -4.95676 5.13218 -11.1997 15.6315
lowerback 5.02552 -3.27871 -0.321892
upperback 0.446855 -4.23773 7.11576
thorax -1.78531 -2.11112 7.89027
lowerneck -13.5145 0.42486 0.812851
upperneck 14.7696 2.66092 -13.4232
head 6.97467 0.138173 -4.24978
rclavicle -2.46493e-014 -3.18055e-015
rhumerus -22.3934 -12.4998 -25.8191
rradius 66.085
rwrist -14.4176
rhand -22.5596 -11.8471
rfingers 7.12502
rthumb 3.8684 -41.7917
lclavicle -2.46493e-014 -3.18055e-015
lhumerus -36.6201 -29.0565 65.463
lradius 76.6908
lwrist 0.517158
lhand -13.3066 3.80803
lfingers 7.12502
lthumb 12.7977 33.3958
rfemur -21.6998 2.62675 -15.1698
rtibia 33.8651
rfoot -14.2989 -11.4185
rtoes -3.54763
lfemur -18.137 10.9462 -36.8059
ltibia 35.5576
lfoot -19.357 8.10475
ltoes -3.06301
446
root 3.67641 17.5289 -5.01136 5.56742 -11.4452 15.5905
lowerback 5.51077 -3.24897 -0.39545
upperback 0.634349 -4.19438 7.1425
thorax -1.86057 -2.09073 7.98738
lowerneck -13.5534 0.513311 0.894585
upperneck 14.0532 2.6874 -13.4334
head 6.75488 0.185514 -4.24714
rclavicle -1.27222e-014 -1.59028e-014
rhumerus -22.5862 -12.0152 -26.6061
rradius 66.0473
rwrist -14.219
rhand -22.4716 -11.7785
rfingers 7.12502
rthumb 3.95337 -41.7215
lclavicle -1.27222e-014 -1.59028e-014
lhumerus -36.5293 -29.4396 65.3817
lradius 76.53
lwrist 0.668686
lhand -13.3011 3.93699
lfingers 7.12502
lthumb 12.8029 33.5244
rfemur -22.3999 2.65542 -15.0528
rtibia 33.7745
rfoot -14.0838 -11.4717
rtoes -3.57306
lfemur -18.7799 10.9867 -36.7524
ltibia 35.4378
lfoot -19.1031 8.11892
ltoes -3.06349
447
root 3.63934 17.5468 -5.06514 6.00615 -11.6873 15.5073
lowerback 5.98284 -3.21149 -0.468489
upperback 0.818221 -4.14169 7.16014
thorax -1.93404 -2.06567 8.0729
lowerneck -13.5808 0.599643 0.975661
upperneck 13.3629 2.70962 -13.4194
head 6.54183 0.231843 -4.23826
rclavicle 3.65764e-014 7.95139e-014
rhumerus -22.8076 -11.4902 -27.4324
rradius 66.0081
rwrist -14.0096
rhand -22.3725 -11.6917
rfingers 7.12502
rthumb 4.04904 -41.633
lclavicle 3.65764e-014 7.95139e-014
lhumerus -36.4222 -29.742 65.2784
lradius 76.3919
lwrist 0.785176
lhand -13.2553 4.06146
lfingers 7.12502
lthumb 12.8471 33.6461
rfemur -23.1019 2.66103 -14.8724
rtibia 33.6998
rfoot -13.8639 -11.5064
rtoes -3.6148
lfemur -19.4206 10.9984 -36.6396
ltibia 35.3382
lfoot -18.852 8.16995
ltoes -3.0819
448
root 3.59851 17.5649 -5.11795 6.45025 -11.9216 15.376
lowerback 6.43969 -3.16692 -0.532806
upperback 0.996781 -4.07989 7.17021
thorax -2.0068 -2.03604 8.14345
lowerneck -13.598 0.683745 1.05535
upperneck 12.7012 2.72841 -13.3814
head 6.33634 0.277208 -4.22306
rclavicle 1.27222e-014 7.63333e-014
rhumerus -23.0621 -10.9212 -28.2972
rradius 65.9704
rwrist -13.7928
rhand -22.2794 -11.5973
rfingers 7.12502
rthumb 4.13901 -41.5369
lclavicle 1.27222e-014 7.63333e-014
lhumerus -36.2949 -29.9564 65.1553
lradius 76.2697
lwrist 0.85155
lhand -13.1567 4.17761
lfingers 7.12502
lthumb 12.9422 33.7562
rfemur -23.8033 2.64289 -14.6215
rtibia 33.6401
rfoot -13.6409 -11.5219
rtoes -3.65998
lfemur -20.0604 10.9799 -36.4611
ltibia 35.2622
lfoot -18.6043 8.25919
ltoes -3.11682
449
root 3.5541 17.5834 -5.16963 6.90069 -12.1436 15.193
lowerback 6.87964 -3.11599 -0.582287
upperback 1.16854 -4.00935 7.1738
thorax -2.07977 -2.00197 8.19649
lowerneck -13.6056 0.765144 1.13222
upperneck 12.0696 2.74395 -13.3185
head 6.13885 0.321459 -4.20101
rclavicle -8.5875e-014 1.27222e-014
rhumerus -23.3542 -10.3047 -29.199
rradius 65.9368
rwrist -13.57
rhand -22.2084 -11.5094
rfingers 7.12502
rthumb 4.20749 -41.4476
lclavicle -8.5875e-014 1.27222e-014
lhumerus -36.1447 -30.0779 65.0156
lradius 76.157
lwrist 0.859992
lhand -13.0029 4.28425
lfingers 7.12502
lthumb 13.0904 33.8534
rfemur -24.5007 2.6016 -14.2957
rtibia 33.5951
rfoot -13.4176 -11.5176
rtoes -3.69241
lfemur -20.6991 10.9312 -36.2123
ltibia 35.2124
lfoot -18.3611 8.38529
ltoes -3.16513
450
root 3.50624 17.602 -5.22001 7.35742 -12.3485 14.9577
lowerback 7.30134 -3.05964 -0.614613
upperback 1.33226 -3.93094 7.17149
thorax -2.15347 -1.96386 8.23113
lowerneck -13.6044 0.84331 1.20523
upperneck 11.4694 2.7562 -13.23
head 5.94967 0.364377 -4.17171
rclavicle 9.54166e-015 3.81667e-014
rhumerus -23.6874 -9.63891 -30.1364
rradius 65.9085
rwrist -13.3366
rhand -22.1686 -11.4372
rfingers 7.12502
rthumb 4.24598 -41.3747
lclavicle 9.54166e-015 3.81667e-014
lhumerus -35.9705 -30.1032 64.8631
lradius 76.0481
lwrist 0.8085
lhand -12.8005 4.384
lfingers 7.12502
lthumb 13.2855 33.9406
rfemur -25.1907 2.5376 -13.894
rtibia 33.5649
rfoot -13.1976 -11.4925
rtoes -3.69721
lfemur -21.3361 10.8539 -35.8916
ltibia 35.1904
lfoot -18.1233 8.5442
ltoes -3.22221
451
root 3.45508 17.6206 -5.26901 7.81926 -12.532 14.6724
lowerback 7.70398 -2.99893 -0.631217
upperback 1.48715 -3.84598 7.16335
thorax -2.22795 -1.92235 8.24823
lowerneck -13.5956 0.917717 1.27391
upperneck 10.9013 2.76499 -13.1156
head 5.76911 0.405692 -4.13499
rclavicle 6.04305e-014 -6.04305e-014
rhumerus -24.0639 -8.92327 -31.1083
rradius 65.885
rwrist -13.0826
rhand -22.1612 -11.3851
rfingers 7.12502
rthumb 4.25312 -41.3224
lclavicle 6.04305e-014 -6.04305e-014
lhumerus -35.7724 -30.0314 64.7017
lradius 75.9389
lwrist 0.701438
lhand -12.5661 4.48094
lfingers 7.12502
lthumb 13.5114 34.0226
rfemur -25.8704 2.45171 -13.419
rtibia 33.5511
rfoot -12.9842 -11.4461
rtoes -3.66262
lfemur -21.9696 10.7512 -35.5004
ltibia 35.1972
lfoot -17.8921 8.72945
ltoes -3.28339
